<svg width="22" height="22" viewBox="0 0 22 22" fill="none" xmlns="http://www.w3.org/2000/svg">
<g clip-path="url(#clip0_4_1053)">
<path fill-rule="evenodd" clip-rule="evenodd" d="M8.24992 19.3334C8.29594 19.3334 8.33325 19.2961 8.33325 19.25C8.33325 19.204 8.29594 19.1667 8.24992 19.1667C8.20389 19.1667 8.16658 19.204 8.16658 19.25C8.16658 19.2961 8.20389 19.3334 8.24992 19.3334ZM6.33325 19.25C6.33325 18.1915 7.19137 17.3334 8.24992 17.3334C9.30847 17.3334 10.1666 18.1915 10.1666 19.25C10.1666 20.3086 9.30847 21.1667 8.24992 21.1667C7.19137 21.1667 6.33325 20.3086 6.33325 19.25Z" fill="#2C2D35"/>
<path fill-rule="evenodd" clip-rule="evenodd" d="M18.3334 19.3334C18.3794 19.3334 18.4167 19.2961 18.4167 19.25C18.4167 19.204 18.3794 19.1667 18.3334 19.1667C18.2874 19.1667 18.2501 19.204 18.2501 19.25C18.2501 19.2961 18.2874 19.3334 18.3334 19.3334ZM16.4167 19.25C16.4167 18.1915 17.2749 17.3334 18.3334 17.3334C19.392 17.3334 20.2501 18.1915 20.2501 19.25C20.2501 20.3086 19.392 21.1667 18.3334 21.1667C17.2749 21.1667 16.4167 20.3086 16.4167 19.25Z" fill="#2C2D35"/>
<path fill-rule="evenodd" clip-rule="evenodd" d="M-0.083252 0.916626C-0.083252 0.364341 0.364463 -0.083374 0.916748 -0.083374H4.58341C5.06004 -0.083374 5.47043 0.253011 5.56397 0.720369L6.32045 4.49996H21.0834C21.3814 4.49996 21.6639 4.63289 21.8539 4.86251C22.0439 5.09214 22.1215 5.39454 22.0657 5.68729L20.5976 13.3856C20.4681 14.0378 20.1132 14.6237 19.5952 15.0407C19.08 15.4555 18.436 15.6768 17.7748 15.6666H8.88199C8.22085 15.6768 7.57684 15.4555 7.0616 15.0407C6.54388 14.6239 6.18916 14.0384 6.05944 13.3866C6.05938 13.3863 6.05931 13.3859 6.05924 13.3856L4.52853 5.73777C4.52202 5.71107 4.51658 5.68395 4.51226 5.65646L3.76373 1.91663H0.916748C0.364463 1.91663 -0.083252 1.46891 -0.083252 0.916626ZM6.72075 6.49996L8.02092 12.996C8.05902 13.1878 8.16338 13.3601 8.31573 13.4828C8.46808 13.6054 8.65871 13.6706 8.85425 13.6668L8.87341 13.6666H17.7834L17.8026 13.6668C17.9981 13.6706 18.1887 13.6054 18.3411 13.4828C18.4927 13.3608 18.5967 13.1896 18.6353 12.9989C18.6355 12.998 18.6357 12.997 18.6359 12.996L19.8747 6.49996H6.72075Z" fill="#2C2D35"/>
</g>
<defs>
<clipPath id="clip0_4_1053">
<rect width="22" height="22" fill="white"/>
</clipPath>
</defs>
</svg>
